<?xml version="1.0" encoding="UTF-8"?>
<svg version="1.1" xmlns="http://www.w3.org/2000/svg" width="285" height="273">
<path d="M0 0 C94.05 0 188.1 0 285 0 C285 90.09 285 180.18 285 273 C190.95 273 96.9 273 0 273 C0 182.91 0 92.82 0 0 Z " fill="#FCFCFC" transform="translate(0,0)"/>
<path d="M0 0 C45.54 0 91.08 0 138 0 C145.69607477 26.16665423 148.45905335 54.91841666 136.01171875 80.07421875 C134.73639962 82.84137421 134.73639962 82.84137421 135.609375 85.04296875 C136.06828125 85.68878906 136.5271875 86.33460937 137 87 C137.53753906 87.87914063 138.07507813 88.75828125 138.62890625 89.6640625 C142.70134186 95.90023662 147.00695617 101.51957545 152.1171875 106.94140625 C154 109 154 109 156 112 C150.30860098 110.90301833 145.25432063 109.45946923 140 107 C140.56267578 107.70962891 140.56267578 107.70962891 141.13671875 108.43359375 C151 121.17884131 151 121.17884131 151 127 C147.04 127 143.08 127 139 127 C141.475 131.95 141.475 131.95 144 137 C142.75605469 136.95359375 141.51210937 136.9071875 140.23046875 136.859375 C130.76915845 136.61011776 122.5907108 136.51728661 114 141 C113.12988281 141.44730469 112.25976562 141.89460937 111.36328125 142.35546875 C103.47551842 146.75327971 98.24050496 151.7981495 93.5625 159.5 C89.0497543 166.84961716 83.47482413 172.55810152 75 175 C66.19189002 176.08742098 58.7987742 174.2708801 51.47265625 169.27734375 C48.58250325 166.61548087 46.76811564 163.66866163 44.8125 160.3125 C37.21562677 147.9951929 27.29940608 140.78237524 13.15869141 137.3815918 C9.43918116 136.72409411 5.76498972 136.79017354 2 136.875 C1.22527344 136.88402344 0.45054688 136.89304688 -0.34765625 136.90234375 C-2.23190843 136.92560612 -4.11599832 136.9614636 -6 137 C-4.77263971 132.84585747 -3.672336 130.56311466 -1 127 C-5.29 127 -9.58 127 -14 127 C-11.52362796 120.44489755 -7.84992403 114.83289859 -4 109 C-7.6982072 109 -10.41155805 110.15433427 -13.84375 111.44140625 C-16 112 -16 112 -19 111 C-18.56139648 110.65461182 -18.12279297 110.30922363 -17.67089844 109.95336914 C-13.09864416 106.21607504 -9.64066527 102.25301748 -6.25 97.4375 C-5.78207031 96.79103516 -5.31414062 96.14457031 -4.83203125 95.47851562 C-3.53129818 93.66743827 -2.26271838 91.83768739 -1 90 C-0.37609375 89.12472656 0.2478125 88.24945313 0.890625 87.34765625 C2.95931071 82.96990938 0.74376472 79.06816238 -0.71411133 74.68603516 C-6.75777326 56.40993002 -8.59952323 39.13984878 -5.75 20.0625 C-5.64091309 19.31830811 -5.53182617 18.57411621 -5.41943359 17.80737305 C-4.33305176 11.36383309 -2.3238352 6.3905468 0 0 Z " fill="#0F1316" transform="translate(71,0)"/>
<path d="M0 0 C16.21247225 15.22989818 26.88352064 38.23624338 28.20532227 60.45068359 C28.30366107 64.21975105 28.32958919 67.97969669 28.3125 71.75 C28.30968018 72.4149649 28.30686035 73.07992981 28.30395508 73.76504517 C28.15823217 96.6170781 21.66826422 116.58687978 8 135 C7.58911133 135.55381348 7.17822266 136.10762695 6.75488281 136.67822266 C-6.75994229 154.49321938 -25.20457763 165.49238745 -46 173 C-46.66153076 173.24967529 -47.32306152 173.49935059 -48.00463867 173.7565918 C-65.5169023 180.06164257 -85.55711153 181.00510232 -104 180 C-105.11544189 179.94199219 -105.11544189 179.94199219 -106.25341797 179.8828125 C-136.84736065 177.99198032 -165.99030689 164.33043467 -186.55859375 141.66455078 C-207.51327934 117.46586407 -213.74957771 89.34026158 -212 58 C-209.91478844 38.19931084 -199.42545646 18.45818388 -186 4 C-185.67 4.66 -185.34 5.32 -185 6 C-185.69609375 7.72669922 -185.69609375 7.72669922 -186.40625 9.48828125 C-188.34768842 14.40504055 -188.53826331 18.94303568 -188.5 24.1875 C-188.49355469 25.11151611 -188.48710937 26.03553223 -188.48046875 26.98754883 C-188.15492773 39.24138404 -183.96121293 49.48043667 -175 58 C-164.82723919 66.1219105 -153.08922387 70.49171059 -141 75 C-128.99771642 79.47944722 -120.07321159 85.58959863 -111.22290039 94.86181641 C-98.04510615 108.64786671 -84.60293467 121.8647593 -64.25 122.375 C-59.33462036 122.17495548 -54.73105431 121.31368863 -50 120 C-49.30261719 119.80921875 -48.60523438 119.6184375 -47.88671875 119.421875 C-46.25332827 118.96360913 -44.62586172 118.48429923 -43 118 C-50.84967828 128.22351419 -62.98235868 133.7387925 -75.58886719 135.71435547 C-95.37589652 138.05850536 -111.23671849 134.84400669 -129 126 C-114.08114891 139.48434618 -96.97052424 146.05114548 -76.96484375 145.14306641 C-72.88429918 144.84594922 -68.93951403 144.08409231 -65 143 C-68.40329961 146.80550165 -72.48931412 147.97092408 -77.1875 149.6875 C-78.01314453 150.00783203 -78.83878906 150.32816406 -79.68945312 150.65820312 C-85.03868158 152.63518354 -89.30216998 153.34831025 -95 153 C-95 153.66 -95 154.32 -95 155 C-69.81783781 154.41096261 -46.17855751 151.59197891 -27.70703125 132.6484375 C-26.07549873 130.8052291 -24.50608819 128.94624777 -23 127 C-22.67 127.66 -22.34 128.32 -22 129 C-27.53741393 144.00060639 -37.81760394 154.33072599 -51 163 C-30.72684722 154.63128323 -11.85978816 143.84082597 -2.625 122.87890625 C1.15387536 112.15897164 2.04161812 100.45093747 -2.84375 89.96484375 C-4.25426659 87.56791859 -5.81093444 85.71998008 -8 84 C-7.67773438 84.721875 -7.35546875 85.44375 -7.0234375 86.1875 C-3.72149631 95.26153686 -6.90326247 104.30425043 -10 113 C-10.33 113 -10.66 113 -11 113 C-11.00257813 112.20078125 -11.00515625 111.4015625 -11.0078125 110.578125 C-11.31046618 101.98276036 -12.836774 95.02072804 -18 88 C-22.8924346 83.44114049 -27.45951653 81.67647091 -34.125 81.625 C-35.75205 81.71964834 -37.37872066 81.83355687 -39 82 C-38.43410156 82.33773437 -37.86820313 82.67546875 -37.28515625 83.0234375 C-36.55167969 83.46945313 -35.81820312 83.91546875 -35.0625 84.375 C-33.96615234 85.03628906 -33.96615234 85.03628906 -32.84765625 85.7109375 C-31 87 -31 87 -30 89 C-29.15538435 94.81578207 -29.84928402 99.32296641 -33.26171875 104.1484375 C-40.8405083 112.22112569 -51.61183424 115.0969244 -62.3125 115.4375 C-74.36813095 115.14612523 -84.46087333 111.39100272 -94 104 C-94.33 103.34 -94.66 102.68 -95 102 C-93.7625 101.95875 -92.525 101.9175 -91.25 101.875 C-78.29681919 100.40629288 -69.0002071 91.57987497 -60.88671875 82.171875 C-51.86682256 71.78872327 -41.65319267 62.78996132 -27.3125 61.7265625 C-14.6479551 61.30392013 -4.97839937 63.76987265 5.01953125 72.01953125 C8.28702495 75.28702495 10.69508274 79.01384897 13 83 C11.56599881 73.96579251 8.34781844 67.23634653 0.875 61.6875 C0.23304688 61.25824219 -0.40890625 60.82898438 -1.0703125 60.38671875 C-3.28931435 58.79209192 -5.11103395 56.96872239 -7 55 C-6.52949219 54.38253906 -6.05898437 53.76507813 -5.57421875 53.12890625 C2.95028332 41.53346554 4.8938878 30.30220477 4 16 C3.24326609 11.91456538 2.18850973 7.97812066 1 4 C0.65933718 2.66852047 0.32299344 1.33587579 0 0 Z " fill="#0F1316" transform="translate(232,85)"/>
<path d="M0 0 C40.26 0 80.52 0 122 0 C118.77499388 3.22500612 116.10674576 5.77778005 112.5625 8.4375 C97.21525961 20.65591311 84.0988421 35.48810237 77 54 C76.67 54 76.34 54 76 54 C76.46555704 47.59859065 78.14711836 42.73230171 81 37 C79.11197917 37.74869792 77.22395833 38.49739583 75.3359375 39.24609375 C63.75871526 42.98255511 52.05099827 41.53374288 41 37 C41.27714844 37.64066406 41.55429688 38.28132813 41.83984375 38.94140625 C43.96571182 44.01776737 45.52274086 48.51151988 46 54 C43.25583185 52.62791592 42.7782883 50.62705809 41.54003906 47.93457031 C32.9533121 29.29425294 18.80895465 14.90831309 2.421875 2.86328125 C1.62265625 2.24839844 0.8234375 1.63351563 0 1 C0 0.67 0 0.34 0 0 Z " fill="#FCFCFC" transform="translate(79,0)"/>
<path d="M0 0 C0.66 0 1.32 0 2 0 C2.15855469 0.76183594 2.31710938 1.52367188 2.48046875 2.30859375 C5.76805635 16.85753114 13.36674516 27.96859128 25.94921875 36.28515625 C33.9209476 40.76606402 42.47895966 44.19475717 50.95703125 47.59375 C61.62635615 51.94008387 69.13104198 57.6756039 77 66 C76.67 66.66 76.34 67.32 76 68 C75.41299316 67.68909424 74.82598633 67.37818848 74.22119141 67.05786133 C67.76497311 63.72360179 61.22391899 61.09696616 54.375 58.6875 C53.37082031 58.32849609 52.36664063 57.96949219 51.33203125 57.59960938 C48.88996026 56.72744117 46.44601994 55.86101699 44 55 C44.8053418 55.67204468 44.8053418 55.67204468 45.62695312 56.35766602 C49.46111253 59.62130737 52.83632088 62.60902143 55.5 66.9375 C55.9846875 67.70964844 56.469375 68.48179687 56.96875 69.27734375 C57.3090625 69.84582031 57.649375 70.41429687 58 71 C49.7512091 68.72859381 43.0746369 64.7164246 36 60 C41.57659466 72.84863752 47.57639368 83.42730032 58 93 C55 94 55 94 52.43359375 93.06640625 C37.22602413 85.43288043 25.5549789 74.71676434 17 60 C18.6394731 66.89111865 20.78175121 73.13264639 23.9140625 79.4921875 C25 82 25 82 25.46875 84.50390625 C28.04851366 96.62500166 41.71688627 108.57350901 51 116 C50.01 116.495 50.01 116.495 49 117 C46.59670039 115.96089954 44.35818754 114.86875601 42.0625 113.625 C41.38880371 113.26140381 40.71510742 112.89780762 40.02099609 112.52319336 C33.73859637 109.0269208 28.30478356 104.85578934 23 100 C22.19820312 99.2678125 21.39640625 98.535625 20.5703125 97.78125 C6.52860345 84.35416121 -5.15305535 63.36236535 -6.1171875 43.59765625 C-6.12374737 41.73137352 -6.06907465 39.86501554 -6 38 C-4.48667864 40.26998204 -3.25736743 42.36821083 -2.0546875 44.79296875 C-1.70019531 45.50517578 -1.34570312 46.21738281 -0.98046875 46.95117188 C-0.61566406 47.68916016 -0.25085937 48.42714844 0.125 49.1875 C0.49753906 49.93708984 0.87007812 50.68667969 1.25390625 51.45898438 C2.17108054 53.3050916 3.08578112 55.15242743 4 57 C3.51566745 54.26224655 2.90361379 51.709293 2.02734375 49.06640625 C-0.94031465 39.52522495 -1.36603264 30.31313315 -1.3125 20.375 C-1.30549072 19.05830322 -1.29848145 17.74160645 -1.29125977 16.38500977 C-1.21342792 10.80371304 -1.03027558 5.49722282 0 0 Z " fill="#F7F7F7" transform="translate(34,122)"/>
<path d="M0 0 C16.07540484 13.06126643 27.91546116 30.85016089 33 51 C33 52.32 33 53.64 33 55 C30.69 54.67 28.38 54.34 26 54 C26.66 54.94875 27.32 55.8975 28 56.875 C30 60 30 60 30 62 C26.36132348 62.34654062 24.29937419 62.1496871 21 60.5 C17.33611127 57.44675939 14.48659295 54.07377995 12 50 C12 49.34 12 48.68 12 48 C15.79826397 49.82316671 19.31067675 51.89181529 23 54 C16.565 44.1 16.565 44.1 10 34 C10.99 33.505 10.99 33.505 12 33 C13.9453125 33.99609375 13.9453125 33.99609375 16.125 35.4375 C16.84945312 35.91058594 17.57390625 36.38367187 18.3203125 36.87109375 C18.87460938 37.24363281 19.42890625 37.61617187 20 38 C15.65014952 31.09461236 11.19816092 24.27529401 6.6015625 17.53125 C5 15 5 15 4 12 C3.34 12 2.68 12 2 12 C-0.06629792 28.27209611 0.88545676 43.14103236 5 59 C-1.59553871 53.62585735 -4.52280141 45.14880481 -5.71875 36.97265625 C-6.92901306 24.18084808 -6.17928077 11.49311606 0 0 Z " fill="#EFF0F0" transform="translate(76,7)"/>
<path d="M0 0 C3 1 3 1 4.16796875 3.1328125 C9.11460188 17.6505174 9.5770261 35.92138182 3 50 C1.47201003 52.8308936 -0.14007978 55.36511301 -2 58 C-3.45254871 55.09490258 -2.47142151 53.40698599 -1.625 50.3125 C1.53065748 38.1365613 2.65362343 25.24097192 -1 13 C-1.33 12.67 -1.66 12.34 -2 12 C-9.92 23.88 -9.92 23.88 -18 36 C-15.36 34.68 -12.72 33.36 -10 32 C-9.34 32.33 -8.68 32.66 -8 33 C-8.69867188 34.03640625 -9.39734375 35.0728125 -10.1171875 36.140625 C-11.0365813 37.51033413 -11.95584534 38.88013038 -12.875 40.25 C-13.33519531 40.93191406 -13.79539063 41.61382812 -14.26953125 42.31640625 C-14.71425781 42.98027344 -15.15898437 43.64414062 -15.6171875 44.328125 C-16.02565918 44.9355957 -16.43413086 45.54306641 -16.85498047 46.16894531 C-18.03767048 48.06024063 -19.03408604 49.99058862 -20 52 C-19.44570312 51.62746094 -18.89140625 51.25492188 -18.3203125 50.87109375 C-17.59585938 50.39800781 -16.87140625 49.92492188 -16.125 49.4375 C-15.40570313 48.96183594 -14.68640625 48.48617187 -13.9453125 47.99609375 C-12.98238281 47.50302734 -12.98238281 47.50302734 -12 47 C-11.34 47.33 -10.68 47.66 -10 48 C-16.19007661 58.2728931 -16.19007661 58.2728931 -22 61 C-25.875 61.25 -25.875 61.25 -29 61 C-27.35 58.03 -25.7 55.06 -24 52 C-26.31 52.66 -28.62 53.32 -31 54 C-29.93586466 32.71729326 -14.57668293 14.29991047 0 0 Z " fill="#F4F4F4" transform="translate(202,8)"/>
<path d="M0 0 C10.31832065 7.91793588 17.02593125 18.6705671 20.125 31.3125 C21.08425142 35.02119817 22.18786333 36.63598889 25.3125 38.875 C26.405625 39.49375 27.49875 40.1125 28.625 40.75 C27.3359375 42.25390625 27.3359375 42.25390625 25.625 43.75 C21.72393124 43.67775799 19.23992988 43.11336765 15.875 41.125 C11.42574841 36.42856777 10.53831173 31.42157235 9.3125 25.25 C8.07447595 19.59418486 6.4051284 15.25620665 1.625 11.75 C-0.48342312 11.05651851 -0.48342312 11.05651851 -2.375 10.75 C-1.88128906 11.35328125 -1.38757813 11.9565625 -0.87890625 12.578125 C-0.23824219 13.37734375 0.40242188 14.1765625 1.0625 15 C1.70058594 15.78890625 2.33867188 16.5778125 2.99609375 17.390625 C4.53005305 19.61247492 5.19630246 21.11743482 5.625 23.75 C4.67625 22.88375 3.7275 22.0175 2.75 21.125 C-8.76140589 11.30440423 -20.3644002 7.18258213 -35.375 6.75 C-31.85564365 3.84817978 -28.51971439 1.67777413 -24.375 -0.25 C-29.70432432 -1.95084819 -34.80609483 -2.77013969 -40.375 -3.25 C-29.61912153 -12.41241499 -10.5515889 -6.97586135 0 0 Z " fill="#F1F1F1" transform="translate(109.375,124.25)"/>
<path d="M0 0 C0 0.33 0 0.66 0 1 C-1.14339844 1.13277344 -2.28679687 1.26554687 -3.46484375 1.40234375 C-4.9557562 1.5805031 -6.44664018 1.75890082 -7.9375 1.9375 C-8.69224609 2.02451172 -9.44699219 2.11152344 -10.22460938 2.20117188 C-13.92187458 2.34324099 -13.92187458 2.34324099 -17 4 C-15.93458984 4.50660156 -15.93458984 4.50660156 -14.84765625 5.0234375 C-13.92855469 5.46945313 -13.00945312 5.91546875 -12.0625 6.375 C-11.14597656 6.81585938 -10.22945312 7.25671875 -9.28515625 7.7109375 C-7 9 -7 9 -6 11 C-7.30710937 11.02126953 -7.30710937 11.02126953 -8.640625 11.04296875 C-23.44458481 11.63576801 -35.71134435 17.1378783 -46 28 C-44.64002446 21.95566426 -41.14348206 18.36505864 -37 14 C-43.36425886 16.66410836 -47.30924759 20.59131999 -50 27 C-50.72553676 30.5186436 -51.33087321 34.04692009 -51.92578125 37.58984375 C-53.3892619 42.2357296 -55.98197356 44.67567015 -60 47.3125 C-62.5086053 48.17483307 -64.36793581 48.34632424 -67 48 C-67.66 47.01 -68.32 46.02 -69 45 C-67.948125 44.505 -66.89625 44.01 -65.8125 43.5 C-61.72596861 40.63369542 -60.76171913 36.99381237 -59.5 32.375 C-56.42925387 21.22801403 -50.57014346 10.17742687 -40.34228516 3.99853516 C-27.85811698 -2.92076405 -13.50520774 -6.75260387 0 0 Z " fill="#F2F3F3" transform="translate(211,120)"/>
<path d="M0 0 C1.74216797 0.02707031 1.74216797 0.02707031 3.51953125 0.0546875 C4.39996094 0.07789062 5.28039062 0.10109375 6.1875 0.125 C5.3934375 0.723125 4.599375 1.32125 3.78125 1.9375 C1.01307078 3.97959583 1.01307078 3.97959583 -0.3125 7.125 C-2.0862192 10.67243839 -3.39072852 12.11656891 -6.8125 14.125 C-8.32824899 14.30124988 -9.85101147 14.42242423 -11.375 14.5 C-13.69887068 14.59375405 -13.69887068 14.59375405 -15.8125 15.125 C-18.34562969 17.88227815 -18.34562969 17.88227815 -19.8125 21.125 C-20.4725 22.115 -21.1325 23.105 -21.8125 24.125 C-22.4096058 17.6497193 -22.08033065 13.18054648 -18.23828125 7.8125 C-13.06497035 1.68956765 -7.86678907 -0.15892503 0 0 Z " fill="#F1F1F1" transform="translate(176.8125,97.875)"/>
<path d="M0 0 C1.93742341 -0.02703381 3.87495479 -0.04641125 5.8125 -0.0625 C6.89144531 -0.07410156 7.97039062 -0.08570312 9.08203125 -0.09765625 C12 0 12 0 15 1 C15 4.3 15 7.6 15 11 C16.9451 8.08235 17.45276317 6.37462715 18 3 C23.00076663 6.74029943 26.21398943 9.80149273 28 16 C28.21230894 19.02057717 28.18495741 21.97902899 28 25 C23 17.5 23 17.5 23 15 C21.515 15.12375 21.515 15.12375 20 15.25 C15.38956244 15.23125838 11.69511586 13.72972523 8 11 C5 6.3125 5 6.3125 5 3 C2.525 2.01 2.525 2.01 0 1 C0 0.67 0 0.34 0 0 Z " fill="#EBECEC" transform="translate(97,98)"/>
<path d="M0 0 C0.66 0.33 1.32 0.66 2 1 C-4.19007661 11.2728931 -4.19007661 11.2728931 -10 14 C-13.875 14.25 -13.875 14.25 -17 14 C-15.95833333 12.27473958 -14.91666667 10.54947917 -13.875 8.82421875 C-12.78376001 6.88638074 -12.78376001 6.88638074 -13 4 C-12.34 4.268125 -11.68 4.53625 -11 4.8125 C-6.90561442 5.0683991 -5.01851847 3.36704196 -1.76953125 1.03125 C-1.18558594 0.6909375 -0.60164063 0.350625 0 0 Z " fill="#EBECEC" transform="translate(190,55)"/>
<path d="M0 0 C2.24587654 1.08134796 4.33545396 2.21503459 6.4375 3.5625 C8.88914443 5.15121935 8.88914443 5.15121935 11.5625 5.3125 C14 6 14 6 16.3125 8.9375 C18 12 18 12 18 14 C14.36132348 14.34654062 12.29937419 14.1496871 9 12.5 C5.33611127 9.44675939 2.48659295 6.07377995 0 2 C0 1.34 0 0.68 0 0 Z " fill="#E9EAEA" transform="translate(88,55)"/>
<path d="M0 0 C1.94268841 2.91403262 3.46395304 5.85808576 5 9 C3.9275 9.04125 2.855 9.0825 1.75 9.125 C-2.19660392 9.63964159 -2.19660392 9.63964159 -4.3125 12.875 C-4.869375 13.90625 -5.42625 14.9375 -6 16 C-6.66 16.99 -7.32 17.98 -8 19 C-8.05437607 17.41705218 -8.09296271 15.83355744 -8.125 14.25 C-8.14820313 13.36828125 -8.17140625 12.4865625 -8.1953125 11.578125 C-7.92883958 8.06068245 -7.00398159 5.98837566 -4.4921875 3.515625 C-2.99479167 2.34375 -1.49739583 1.171875 0 0 Z " fill="#F4F4F4" transform="translate(163,103)"/>
<path d="M0 0 C2.31 0 4.62 0 7 0 C5.37003104 4.13822218 3.63344645 8.22768778 1.875 12.3125 C1.45927734 13.28026367 1.45927734 13.28026367 1.03515625 14.26757812 C0.35732446 15.84529005 -0.32126074 17.42267826 -1 19 C-2.20967877 15.37096368 -1.91640143 12.74540781 -1.625 8.9375 C-1.53476563 7.68839844 -1.44453125 6.43929688 -1.3515625 5.15234375 C-1 2 -1 2 0 0 Z " fill="#111316" transform="translate(142,0)"/>
<path d="M0 0 C2.31 0 4.62 0 7 0 C7.90413673 3.83724172 8.10576898 7.37502274 8.0625 11.3125 C8.05347656 12.38113281 8.04445312 13.44976562 8.03515625 14.55078125 C8.02355469 15.35902344 8.01195312 16.16726562 8 17 C6.03573334 14.05360001 4.4654176 11.09912726 2.875 7.9375 C2.33617187 6.87402344 1.79734375 5.81054688 1.2421875 4.71484375 C0 2 0 2 0 0 Z " fill="#0E1113" transform="translate(131,0)"/>
<path d="M0 0 C0.66 0.33 1.32 0.66 2 1 C1.52949219 1.49628906 1.05898437 1.99257812 0.57421875 2.50390625 C-3.37606528 6.81405053 -6.04612353 10.48317233 -8 16 C-8.99 16 -9.98 16 -11 16 C-11.75 14.375 -11.75 14.375 -12 12 C-9.22807182 6.78877502 -5.32080335 2.66040168 0 0 Z " fill="#141516" transform="translate(173,133)"/>
<path d="M0 0 C0.33 0 0.66 0 1 0 C1.8630406 2.78920389 2.71572307 5.58086072 3.5625 8.375 C3.9327832 9.56609375 3.9327832 9.56609375 4.31054688 10.78125 C4.53935547 11.54179687 4.76816406 12.30234375 5.00390625 13.0859375 C5.21861572 13.7876709 5.4333252 14.4894043 5.65454102 15.21240234 C6 17 6 17 5 19 C3.68144905 16.75335738 2.37006028 14.50302694 1.0625 12.25 C0.68931641 11.61578125 0.31613281 10.9815625 -0.06835938 10.328125 C-1.85536764 7.23708368 -3.24885273 4.48532332 -4 1 C-2.68 1.33 -1.36 1.66 0 2 C0 1.34 0 0.68 0 0 Z " fill="#262828" transform="translate(34,163)"/>
<path d="M0 0 C1.32 0 2.64 0 4 0 C3.67 6.6 3.34 13.2 3 20 C2.01 19.67 1.02 19.34 0 19 C0 12.73 0 6.46 0 0 Z " fill="#D8D9D9" transform="translate(138,0)"/>
<path d="M0 0 C6.20768526 1.21125566 9.48416179 5.00709367 13 10 C13 10.66 13 11.32 13 12 C12.34 12 11.68 12 11 12 C11 11.34 11 10.68 11 10 C10.01 10.33 9.02 10.66 8 11 C6.85204994 9.5433323 5.70670581 8.08461063 4.5625 6.625 C3.60537109 5.40683594 3.60537109 5.40683594 2.62890625 4.1640625 C1 2 1 2 0 0 Z " fill="#141517" transform="translate(105,133)"/>
<path d="M0 0 C5.33533595 2.34431428 8.70145955 6.52096823 11.375 11.625 C12.04736106 14.17997202 12.15033276 16.36917676 12 19 C9.84585129 16.84585129 8.97755608 15.05649551 7.6875 12.3125 C5.49955259 7.82590546 3.01890641 3.96770556 0 0 Z " fill="#C9CCCE" transform="translate(115,86)"/>
<path d="M0 0 C2.39777833 2.90292826 3.68422011 5.45733641 4.75 9.0625 C5.01296875 9.91972656 5.2759375 10.77695312 5.546875 11.66015625 C6 14 6 14 5 17 C2.69 12.05 0.38 7.1 -2 2 C-1.34 1.34 -0.68 0.68 0 0 Z " fill="#D3D4D5" transform="translate(119,37)"/>
<path d="M0 0 C0 3 0 3 -1.6875 5.0625 C-4.8240579 9.04677625 -6.83636086 13.43330263 -9 18 C-9.33 18 -9.66 18 -10 18 C-10.64438057 12.84495546 -9.22943165 9.98825235 -6.4453125 5.8359375 C-4.57750328 3.46331498 -2.48401898 1.7033273 0 0 Z " fill="#C2C4C5" transform="translate(163,86)"/>
<path d="M0 0 C3.09423168 3.09423168 3.93706005 6.5523812 4.125 10.875 C4.08375 11.57625 4.0425 12.2775 4 13 C2.5 11 2.5 11 1 9 C0.4225 8.34 -0.155 7.68 -0.75 7 C-2 5 -2 5 -1.75 2.8125 C-1 1 -1 1 0 0 Z " fill="#DEE0E0" transform="translate(242,157)"/>
<path d="M0 0 C1 2 1 2 0.22265625 4.6015625 C-0.16019531 5.59929687 -0.54304688 6.59703125 -0.9375 7.625 C-1.31777344 8.62789062 -1.69804688 9.63078125 -2.08984375 10.6640625 C-2.39019531 11.43492188 -2.69054688 12.20578125 -3 13 C-4.4606285 10.35261084 -5 9.10551666 -5 6 C-3.51448079 3.81947002 -1.75825803 1.97804029 0 0 Z " fill="#1E1F20" transform="translate(46,89)"/>
<path d="M0 0 C0.99 0.33 1.98 0.66 3 1 C3.125 6.75 3.125 6.75 2 9 C1.34 9 0.68 9 0 9 C-1.36623674 6.26752652 -1.128426 4.01801098 -1 1 C-0.67 0.67 -0.34 0.34 0 0 Z " fill="#1C1D1E" transform="translate(166,101)"/>
<path d="M0 0 C2.35729943 2.19138979 4.02057098 4.43931973 5.6875 7.1875 C6.12449219 7.90292969 6.56148437 8.61835938 7.01171875 9.35546875 C7.33785156 9.89816406 7.66398437 10.44085938 8 11 C5.125 10.5625 5.125 10.5625 2 9 C0.84070212 6.06418547 0.37294434 3.12501639 0 0 Z " fill="#313332" transform="translate(50,181)"/>
<path d="M0 0 C3.125 0.375 3.125 0.375 6 1 C6.33 2.65 6.66 4.3 7 6 C2.545 4.02 2.545 4.02 -2 2 C-1.34 1.34 -0.68 0.68 0 0 Z " fill="#1D1E1F" transform="translate(195,122)"/>
<path d="M0 0 C0.99 0.33 1.98 0.66 3 1 C2.34 1.66 1.68 2.32 1 3 C0.34 3 -0.32 3 -1 3 C-1.66 4.32 -2.32 5.64 -3 7 C-3.33 6.34 -3.66 5.68 -4 5 C-5.65 6.32 -7.3 7.64 -9 9 C-7.27592413 4.61144323 -4.17026127 2.08513063 0 0 Z " fill="#D7D8D9" transform="translate(167,99)"/>
<path d="M0 0 C3.59634744 3.49359465 6.83451967 7.11098131 10 11 C7 11 7 11 5.4375 9.5625 C4.963125 9.046875 4.48875 8.53125 4 8 C3.34 7.67 2.68 7.34 2 7 C1.26924352 4.6859378 0.59861742 2.35171131 0 0 Z " fill="#262828" transform="translate(232,85)"/>
<path d="M0 0 C0.33 0 0.66 0 1 0 C3.17712665 6.76632168 3.04714611 10.55411399 0 17 C-1.22329074 13.33012779 -0.88021006 10.66032178 -0.5625 6.8125 C-0.46066406 5.54019531 -0.35882813 4.26789062 -0.25390625 2.95703125 C-0.17011719 1.98121094 -0.08632812 1.00539062 0 0 Z " fill="#272729" transform="translate(141,2)"/>
<path d="M0 0 C0.99 0.99 1.98 1.98 3 3 C1.8553125 3.8971875 1.8553125 3.8971875 0.6875 4.8125 C-1.3483575 6.46959332 -3.1978279 8.10297674 -5 10 C-3.84414715 6.08788267 -2.64465038 3.1254959 0 0 Z " fill="#D8D8D9" transform="translate(170,138)"/>
<path d="M0 0 C0.33 0.66 0.66 1.32 1 2 C1.99 2.33 2.98 2.66 4 3 C3.34 4.65 2.68 6.3 2 8 C1.01 8 0.02 8 -1 8 C-1.93065133 5.39417629 -2.14917407 4.35801776 -1.0625 1.75 C-0.711875 1.1725 -0.36125 0.595 0 0 Z " fill="#1F2021" transform="translate(163,141)"/>
<path d="M0 0 C1.32 0.33 2.64 0.66 4 1 C3.38245741 2.31602523 2.75571258 3.62773556 2.125 4.9375 C1.77695313 5.66839844 1.42890625 6.39929687 1.0703125 7.15234375 C0 9 0 9 -2 10 C-1.34 6.7 -0.68 3.4 0 0 Z " fill="#D5D7D7" transform="translate(201,56)"/>
<path d="M0 0 C0.99 0.66 1.98 1.32 3 2 C1.68 4.97 0.36 7.94 -1 11 C-1.33 11 -1.66 11 -2 11 C-1.125 3.375 -1.125 3.375 0 0 Z " fill="#BABCBC" transform="translate(157,43)"/>
<path d="M0 0 C5.75 1.625 5.75 1.625 8 5 C7.01 5.66 6.02 6.32 5 7 C3.35 4.69 1.7 2.38 0 0 Z " fill="#1F2020" transform="translate(105,133)"/>
<path d="M0 0 C0 2 0 4 0 6 C-2.31 6.33 -4.62 6.66 -7 7 C-4.66666667 4.66666667 -2.33333333 2.33333333 0 0 Z " fill="#232426" transform="translate(59,105)"/>
<path d="M0 0 C3.0831351 1.19899698 6.06279492 2.47700477 9 4 C8.67 4.99 8.34 5.98 8 7 C6.66382648 6.02471263 5.3311249 5.04466681 4 4.0625 C3.2575 3.51722656 2.515 2.97195312 1.75 2.41015625 C1.1725 1.94480469 0.595 1.47945312 0 1 C0 0.67 0 0.34 0 0 Z " fill="#D3D5D6" transform="translate(102,210)"/>
<path d="M0 0 C1.04059132 3.12177395 1.32284898 4.07083439 0 7 C-2.5625 8.25 -2.5625 8.25 -5 9 C-3.35 6.03 -1.7 3.06 0 0 Z " fill="#1D1E1E" transform="translate(188,36)"/>
<path d="M0 0 C0.33 0 0.66 0 1 0 C1 3.96 1 7.92 1 12 C-1.64285714 8.03571429 -1.64285714 8.03571429 -2 5 C-1.0625 2.25 -1.0625 2.25 0 0 Z " fill="#313232" transform="translate(138,5)"/>
<path d="M0 0 C-2.97 1.32 -5.94 2.64 -9 4 C-9.33 3.01 -9.66 2.02 -10 1 C-8.71073008 0.63720544 -7.41846728 0.28503302 -6.125 -0.0625 C-5.40570313 -0.25972656 -4.68640625 -0.45695313 -3.9453125 -0.66015625 C-2 -1 -2 -1 0 0 Z " fill="#333435" transform="translate(167,229)"/>
<path d="M0 0 C3.3 0.99 6.6 1.98 10 3 C9.01 3.33 8.02 3.66 7 4 C6.67 4.66 6.34 5.32 6 6 C3.97945196 4.35830472 1.97956942 2.69088222 0 1 C0 0.67 0 0.34 0 0 Z " fill="#222324" transform="translate(77,176)"/>
<path d="M0 0 C0.66 0 1.32 0 2 0 C1.01 2.97 0.02 5.94 -1 9 C-1.33 9 -1.66 9 -2 9 C-2.25 3.375 -2.25 3.375 0 0 Z " fill="#D6D7D8" transform="translate(155,95)"/>
<path d="M0 0 C0.99 0.99 1.98 1.98 3 3 C1.625 5 1.625 5 0 7 C-0.66 7 -1.32 7 -2 7 C-1.125 2.25 -1.125 2.25 0 0 Z " fill="#EAEBEB" transform="translate(160,37)"/>
<path d="M0 0 C1.32 0.66 2.64 1.32 4 2 C-2.625 5.125 -2.625 5.125 -6 4 C-4.02 2.68 -2.04 1.36 0 0 Z " fill="#B9BBBC" transform="translate(185,244)"/>
<path d="M0 0 C0.66 0.33 1.32 0.66 2 1 C-0.97 3.475 -0.97 3.475 -4 6 C-4.33 4.68 -4.66 3.36 -5 2 C-2.625 0.9375 -2.625 0.9375 0 0 Z " fill="#272728" transform="translate(187,203)"/>
<path d="M0 0 C5.53846154 -0.36923077 5.53846154 -0.36923077 7.875 1.5 C8.24625 1.995 8.6175 2.49 9 3 C8.67 3.66 8.34 4.32 8 5 C5.36 3.68 2.72 2.36 0 1 C0 0.67 0 0.34 0 0 Z " fill="#D3D4D5" transform="translate(102,185)"/>
<path d="M0 0 C4.29 0 8.58 0 13 0 C12.67 0.99 12.34 1.98 12 3 C11.34 2.67 10.68 2.34 10 2 C8.29636178 1.77377919 6.58671299 1.59111527 4.875 1.4375 C3.96492188 1.35371094 3.05484375 1.26992187 2.1171875 1.18359375 C1.41851562 1.12300781 0.71984375 1.06242188 0 1 C0 0.67 0 0.34 0 0 Z " fill="#D9DADB" transform="translate(57,127)"/>
</svg>
